<svg xmlns="http://www.w3.org/2000/svg" xmlns:v="https://svgstorm.com"
viewBox = "0 0 406 125"
width="406"
height="125">
<g fill="None" fill-opacity="0.0" stroke="#FDFDFD" stroke-opacity="1.00" stroke-width="0.3"><path d="
M 0.00 125.00 
L 406.00 125.00
L 406.00 0.00
L 0.00 0.00
L 0.00 125.00
M 89.00 36.00 
C 92.11 36.12 95.94 36.52 99.00 36.00
C 106.43 33.75 110.94 20.33 98.97 19.03 C 87.01 17.72 81.57 20.02 68.00 19.00 C 54.43 17.98 63.10 9.57 74.00 12.00 C 84.90 14.43 94.88 9.55 104.07 12.93 C 113.26 16.30 115.39 27.29 112.07 35.07 C 108.75 42.85 97.66 44.82 90.00 44.00 C 82.34 43.18 74.00 40.02 67.25 35.75 C 60.50 31.47 56.38 26.83 48.92 23.08 C 41.46 19.34 31.35 17.58 22.00 19.00 C 12.65 20.42 11.50 33.00 21.00 36.00
C 27.22 37.11 35.30 36.31 41.00 37.00
C 48.14 37.14 55.41 38.20 61.69 41.31 C 67.98 44.41 71.40 48.22 74.31 54.69 C 77.21 61.17 77.24 70.53 77.00 78.00 C 76.76 85.47 78.10 94.91 74.08 101.08 C 70.05 107.24 61.97 109.48 55.33 107.67 C 48.69 105.86 44.52 99.43 44.00 93.00 C 43.49 86.56 44.87 72.92 44.00 67.00 C 43.13 61.08 43.55 43.98 49.74 49.26 C 55.94 54.54 48.44 67.06 51.00 74.00 C 53.56 80.94 47.63 91.68 53.25 97.75 C 58.88 103.81 66.75 101.13 69.00 94.00
C 70.67 84.67 69.51 72.48 69.00 63.00
C 68.21 48.46 48.42 39.41 34.00 44.00 C 19.58 48.59 -0.94 32.66 9.77 18.77 C 20.48 4.88 40.30 11.41 52.69 17.31 C 65.09 23.20 73.93 35.42 89.00 36.00
M 162.00 53.00 
C 165.26 54.69 166.83 61.73 164.67 65.67 C 162.51 69.61 153.43 65.47 150.00 67.00
C 148.69 80.35 152.63 96.24 148.00 108.00
C 145.36 109.90 132.73 110.50 131.00 107.00
C 128.35 101.64 132.38 92.98 131.00 87.00 C 129.62 81.02 132.04 73.15 131.00 67.00
C 126.67 67.00 122.33 67.00 118.00 67.00
C 115.04 65.54 114.38 54.08 118.00 53.00
C 118.46 52.86 119.00 53.00 119.00 53.00
C 123.39 49.75 134.15 52.20 140.00 52.00 C 145.85 51.80 157.09 50.46 162.00 53.00
M 220.00 76.00 
C 220.62 79.23 220.57 81.84 220.00 85.00
C 217.85 116.53 169.50 116.50 167.00 85.00
C 166.38 81.76 166.39 79.18 167.00 76.00
C 169.46 44.99 217.54 44.94 220.00 76.00
M 250.00 53.00 
C 260.54 53.40 269.35 57.32 272.00 68.00
C 272.69 70.78 272.71 72.26 272.00 75.00
C 269.39 85.07 262.19 88.80 252.00 89.00
C 249.68 89.28 246.02 90.86 243.00 90.00
C 242.35 95.16 244.31 101.66 242.00 106.00
C 241.39 107.07 241.03 107.41 240.00 108.00
C 237.03 109.70 227.84 110.05 225.00 108.00
C 219.99 104.39 223.16 88.42 223.00 82.00 C 222.84 75.58 220.90 60.41 224.00 55.00
C 224.61 53.93 224.97 53.59 226.00 53.00
C 231.62 49.78 244.17 52.17 250.00 53.00
M 293.00 67.00 
C 300.54 75.12 314.80 70.97 320.92 83.08 C 327.04 95.18 314.02 108.29 303.78 108.78 C 293.54 109.27 271.79 108.81 275.26 95.26 C 278.72 81.71 300.80 103.49 304.00 91.00
C 295.80 88.22 287.68 88.20 280.75 82.25 C 273.83 76.29 273.95 66.05 279.75 59.75 C 285.56 53.46 296.00 50.77 303.67 52.33 C 311.34 53.89 324.20 57.75 316.77 65.77 C 309.34 73.79 302.38 62.87 293.00 67.00
M 342.00 53.00 
C 343.07 53.61 343.41 53.97 344.00 55.00
C 347.43 60.97 344.61 72.75 345.00 80.00 C 345.39 87.25 346.40 98.67 344.00 105.00
C 343.37 106.66 343.61 106.98 342.00 108.00
C 339.49 109.58 329.27 110.25 327.00 108.00
C 325.99 107.00 326.13 106.52 326.00 105.00
C 324.88 100.50 324.55 93.05 325.00 88.00 C 325.45 82.95 324.13 74.38 325.00 70.00 C 325.87 65.62 322.32 54.39 327.00 53.00
C 327.46 52.86 328.00 53.00 328.00 53.00
C 330.77 50.95 339.22 51.41 342.00 53.00
M 377.00 53.00 
C 384.44 53.40 397.63 58.48 389.75 66.75 C 381.87 75.02 373.61 59.69 367.00 69.00
C 373.55 72.40 379.93 72.21 386.69 75.31 C 393.46 78.40 395.82 85.36 395.22 92.22 C 394.62 99.08 390.45 104.32 383.92 106.92 C 377.39 109.53 366.62 108.71 360.78 107.22 C 354.94 105.73 344.04 101.96 348.26 95.26 C 352.47 88.56 357.81 88.05 363.25 93.75 C 368.68 99.45 382.73 91.41 372.33 89.67 C 361.92 87.94 360.65 87.26 353.75 82.25 C 346.86 77.23 347.82 68.17 350.92 61.92 C 354.03 55.68 362.61 52.67 369.00 53.00
C 371.81 52.60 374.23 52.55 377.00 53.00 Z"/>
</g>
<g fill="None" fill-opacity="0.0" stroke="#393458" stroke-opacity="1.00" stroke-width="0.3"><path d="
M 69.00 63.00 
C 70.40 71.64 71.68 85.53 69.00 94.00
C 66.75 101.13 58.88 103.81 53.25 97.75 C 47.63 91.68 53.56 80.94 51.00 74.00 C 48.44 67.06 55.94 54.54 49.74 49.26 C 43.55 43.98 43.13 61.08 44.00 67.00 C 44.87 72.92 43.49 86.56 44.00 93.00 C 44.52 99.43 48.69 105.86 55.33 107.67 C 61.97 109.48 70.05 107.24 74.08 101.08 C 78.10 94.91 76.76 85.47 77.00 78.00 C 77.24 70.53 77.21 61.17 74.31 54.69 C 71.40 48.22 67.98 44.41 61.69 41.31 C 55.41 38.20 48.14 37.14 41.00 37.00
C 34.44 36.87 26.76 37.82 21.00 36.00
C 11.50 33.00 12.65 20.42 22.00 19.00 C 31.35 17.58 41.46 19.34 48.92 23.08 C 56.38 26.83 60.50 31.47 67.25 35.75 C 74.00 40.02 82.34 43.18 90.00 44.00 C 97.66 44.82 108.75 42.85 112.07 35.07 C 115.39 27.29 113.26 16.30 104.07 12.93 C 94.88 9.55 84.90 14.43 74.00 12.00 C 63.10 9.57 54.43 17.98 68.00 19.00 C 81.57 20.02 87.01 17.72 98.97 19.03 C 110.94 20.33 106.43 33.75 99.00 36.00
C 95.43 37.08 92.39 36.48 89.00 36.00
C 73.93 35.42 65.09 23.20 52.69 17.31 C 40.30 11.41 20.48 4.88 9.77 18.77 C -0.94 32.66 19.58 48.59 34.00 44.00 C 48.42 39.41 68.21 48.46 69.00 63.00 Z"/>
</g>
<g fill="None" fill-opacity="0.0" stroke="#A4A2AC" stroke-opacity="1.00" stroke-width="0.3"><path d="
M 41.00 37.00 
C 35.30 36.31 27.22 37.11 21.00 36.00
C 26.76 37.82 34.44 36.87 41.00 37.00 Z"/>
</g>
<g fill="None" fill-opacity="0.0" stroke="#9997A4" stroke-opacity="1.00" stroke-width="0.3"><path d="
M 99.00 36.00 
C 95.94 36.52 92.11 36.12 89.00 36.00
C 92.39 36.48 95.43 37.08 99.00 36.00 Z"/>
</g>
<g fill="None" fill-opacity="0.0" stroke="#BDD0EA" stroke-opacity="1.00" stroke-width="0.3"><path d="
M 119.00 53.00 
C 125.78 53.00 133.29 52.14 140.00 53.00 C 146.71 53.86 155.64 50.85 162.00 53.00
C 157.09 50.46 145.85 51.80 140.00 52.00 C 134.15 52.20 123.39 49.75 119.00 53.00 Z"/>
</g>
<g fill="None" fill-opacity="0.0" stroke="#1657B3" stroke-opacity="1.00" stroke-width="0.3"><path d="
M 167.00 76.00 
C 166.77 78.87 166.77 82.13 167.00 85.00
C 169.50 116.50 217.85 116.53 220.00 85.00
C 220.20 82.11 220.23 78.89 220.00 76.00
C 217.54 44.94 169.46 44.99 167.00 76.00
M 217.00 76.00 
C 217.56 79.46 217.61 82.58 217.00 86.00
C 215.17 112.82 172.12 112.76 170.00 86.00
C 169.33 82.50 169.45 79.41 170.00 76.00
C 171.50 48.31 215.50 48.28 217.00 76.00 Z"/>
</g>
<g fill="None" fill-opacity="0.0" stroke="#BDD0EA" stroke-opacity="1.00" stroke-width="0.3"><path d="
M 226.00 53.00 
C 232.25 50.98 243.38 52.75 250.00 53.00
C 244.17 52.17 231.62 49.78 226.00 53.00 Z"/>
</g>
<g fill="None" fill-opacity="0.0" stroke="#1A59B4" stroke-opacity="1.00" stroke-width="0.3"><path d="
M 293.00 67.00 
C 302.38 62.87 309.34 73.79 316.77 65.77 C 324.20 57.75 311.34 53.89 303.67 52.33 C 296.00 50.77 285.56 53.46 279.75 59.75 C 273.95 66.05 273.83 76.29 280.75 82.25 C 287.68 88.20 295.80 88.22 304.00 91.00
C 300.80 103.49 278.72 81.71 275.26 95.26 C 271.79 108.81 293.54 109.27 303.78 108.78 C 314.02 108.29 327.04 95.18 320.92 83.08 C 314.80 70.97 300.54 75.12 293.00 67.00
M 319.00 87.00 
C 319.69 89.78 319.71 91.26 319.00 94.00
C 314.53 111.26 285.16 109.42 276.00 97.00
C 279.33 95.88 281.56 92.61 285.00 92.00
C 287.01 97.44 305.49 102.77 306.92 93.92 C 308.35 85.07 291.75 87.10 285.93 83.07 C 280.10 79.05 273.96 68.67 280.77 61.77 C 287.58 54.87 296.07 54.50 305.22 55.78 C 314.37 57.06 321.18 64.32 309.00 68.00
C 303.69 56.00 284.45 68.04 295.08 72.92 C 305.70 77.81 316.06 73.93 319.00 87.00 Z"/>
</g>
<g fill="None" fill-opacity="0.0" stroke="#BFD1EA" stroke-opacity="1.00" stroke-width="0.3"><path d="
M 328.00 53.00 
C 331.99 53.00 338.24 51.78 342.00 53.00
C 339.22 51.41 330.77 50.95 328.00 53.00 Z"/>
</g>
<g fill="None" fill-opacity="0.0" stroke="#5385C8" stroke-opacity="1.00" stroke-width="0.3"><path d="
M 369.00 53.00 
C 371.63 52.90 374.37 52.86 377.00 53.00
C 374.23 52.55 371.81 52.60 369.00 53.00 Z"/>
</g>
<g fill="None" fill-opacity="0.0" stroke="#497DC5" stroke-opacity="1.00" stroke-width="0.3"><path d="
M 118.00 67.00 
C 115.71 65.38 116.46 54.91 118.00 53.00
C 114.38 54.08 115.04 65.54 118.00 67.00 Z"/>
</g>
<g fill="None" fill-opacity="0.0" stroke="#024BAD" stroke-opacity="1.00" stroke-width="0.3"><path d="
M 118.00 67.00 
C 122.33 67.00 126.67 67.00 131.00 67.00
C 132.04 73.15 129.62 81.02 131.00 87.00 C 132.38 92.98 128.35 101.64 131.00 107.00
C 132.33 108.88 145.96 109.01 148.00 108.00
C 152.63 96.24 148.69 80.35 150.00 67.00
C 153.43 65.47 162.51 69.61 164.67 65.67 C 166.83 61.73 165.26 54.69 162.00 53.00
C 155.64 50.85 146.71 53.86 140.00 53.00 C 133.29 52.14 125.78 53.00 119.00 53.00
C 119.00 53.00 118.46 52.86 118.00 53.00
C 116.46 54.91 115.71 65.38 118.00 67.00
M 162.00 56.00 
C 171.30 65.30 152.67 64.47 149.00 65.00
C 148.70 65.22 148.22 65.70 148.00 66.00
C 147.16 71.83 149.28 80.48 148.00 86.00 C 146.72 91.52 150.92 102.23 147.00 106.00
C 142.90 106.37 138.10 106.37 134.00 106.00
C 130.09 102.24 134.20 92.64 133.00 87.00 C 131.80 81.36 133.86 71.99 133.00 66.00
C 132.78 65.70 132.30 65.22 132.00 65.00
C 128.29 64.47 109.71 65.29 119.00 56.00
C 122.12 52.88 135.28 54.88 140.00 55.00 C 144.72 55.12 158.78 52.78 162.00 56.00 Z"/>
</g>
<g fill="None" fill-opacity="0.0" stroke="#0A4FAF" stroke-opacity="1.00" stroke-width="0.3"><path d="
M 224.00 55.00 
C 222.45 59.80 224.35 68.04 224.00 73.00 C 223.65 77.96 223.37 86.58 224.00 91.00 C 224.63 95.42 221.49 105.52 225.00 108.00
C 226.59 109.12 238.04 108.64 240.00 108.00
C 241.03 107.41 241.39 107.07 242.00 106.00
C 243.47 101.45 241.63 98.14 242.00 93.00 C 242.37 87.86 247.56 89.09 252.00 89.00
C 262.19 88.80 269.39 85.07 272.00 75.00
C 272.27 72.88 272.24 70.12 272.00 68.00
C 269.35 57.32 260.54 53.40 250.00 53.00
C 243.38 52.75 232.25 50.98 226.00 53.00
C 224.97 53.59 224.61 53.93 224.00 55.00
M 251.00 56.00 
C 259.84 56.18 268.95 59.73 269.99 70.01 C 271.03 80.29 262.41 85.81 253.00 86.00
C 249.74 86.39 244.78 86.46 241.00 87.00
C 240.70 87.22 240.22 87.70 240.00 88.00
C 239.15 93.88 240.64 100.09 240.00 106.00
C 235.33 106.00 230.67 106.00 226.00 106.00
C 226.00 89.33 226.00 72.67 226.00 56.00
C 229.77 52.08 246.50 55.46 251.00 56.00 Z"/>
</g>
<g fill="None" fill-opacity="0.0" stroke="#4077C2" stroke-opacity="1.00" stroke-width="0.3"><path d="
M 326.00 105.00 
C 325.37 97.59 325.05 86.14 326.00 79.00 C 326.95 71.86 322.55 58.51 327.00 53.00
C 322.32 54.39 325.87 65.62 325.00 70.00 C 324.13 74.38 325.45 82.95 325.00 88.00 C 324.55 93.05 324.88 100.50 326.00 105.00 Z"/>
</g>
<g fill="None" fill-opacity="0.0" stroke="#014AAD" stroke-opacity="1.00" stroke-width="0.3"><path d="
M 326.00 105.00 
C 326.13 106.52 325.99 107.00 327.00 108.00
C 328.69 109.02 340.12 108.77 342.00 108.00
C 343.61 106.98 343.37 106.66 344.00 105.00
C 345.58 97.73 344.26 87.43 344.00 80.00 C 343.74 72.57 346.26 61.98 344.00 55.00
C 343.41 53.97 343.07 53.61 342.00 53.00
C 338.24 51.78 331.99 53.00 328.00 53.00
C 328.00 53.00 327.46 52.86 327.00 53.00
C 322.55 58.51 326.95 71.86 326.00 79.00 C 325.05 86.14 325.37 97.59 326.00 105.00
M 341.00 105.00 
C 339.35 106.65 329.43 107.05 328.00 105.00
C 325.82 101.88 328.54 93.04 328.00 89.00 C 327.46 84.96 327.25 77.10 328.00 73.00 C 328.75 68.90 325.71 59.28 328.00 56.00
C 331.28 51.31 344.84 55.12 342.00 62.00 C 339.16 68.88 344.25 77.61 342.00 84.00 C 339.75 90.39 345.59 100.41 341.00 105.00 Z"/>
</g>
<g fill="None" fill-opacity="0.0" stroke="#1C5AB4" stroke-opacity="1.00" stroke-width="0.3"><path d="
M 377.00 53.00 
C 374.37 52.86 371.63 52.90 369.00 53.00
C 362.61 52.67 354.03 55.68 350.92 61.92 C 347.82 68.17 346.86 77.23 353.75 82.25 C 360.65 87.26 361.92 87.94 372.33 89.67 C 382.73 91.41 368.68 99.45 363.25 93.75 C 357.81 88.05 352.47 88.56 348.26 95.26 C 344.04 101.96 354.94 105.73 360.78 107.22 C 366.62 108.71 377.39 109.53 383.92 106.92 C 390.45 104.32 394.62 99.08 395.22 92.22 C 395.82 85.36 393.46 78.40 386.69 75.31 C 379.93 72.21 373.55 72.40 367.00 69.00
C 373.61 59.69 381.87 75.02 389.75 66.75 C 397.63 58.48 384.44 53.40 377.00 53.00
M 352.00 74.00 
C 351.12 71.21 351.13 69.74 352.00 67.00
C 356.80 51.83 382.43 50.71 390.00 63.00
C 384.66 73.60 371.90 55.84 365.78 64.78 C 359.66 73.71 377.38 74.42 384.07 76.93 C 390.77 79.43 396.99 92.11 390.23 99.23 C 383.47 106.35 372.72 106.82 363.33 105.67 C 353.94 104.52 344.77 95.62 358.00 92.00
C 362.83 96.09 369.12 102.41 377.02 97.02 C 384.93 91.63 373.50 85.52 366.99 86.01 C 360.48 86.50 353.67 79.43 352.00 74.00 Z"/>
</g>
<g fill="None" fill-opacity="0.0" stroke="#7CA2D5" stroke-opacity="1.00" stroke-width="0.3"><path d="
M 119.00 56.00 
C 133.33 56.00 147.67 56.00 162.00 56.00
C 158.78 52.78 144.72 55.12 140.00 55.00 C 135.28 54.88 122.12 52.88 119.00 56.00 Z"/>
</g>
<g fill="None" fill-opacity="0.0" stroke="#FAFBFD" stroke-opacity="1.00" stroke-width="0.3"><path d="
M 170.00 76.00 
C 169.82 79.23 169.74 82.77 170.00 86.00
C 172.12 112.76 215.17 112.82 217.00 86.00
C 217.22 82.75 217.18 79.25 217.00 76.00
C 215.50 48.28 171.50 48.31 170.00 76.00
M 203.00 75.00 
C 203.73 79.05 203.89 82.98 203.00 87.00
C 199.90 101.01 187.11 101.05 184.00 87.00
C 183.10 82.93 183.29 78.98 184.00 75.00
C 185.01 60.10 201.97 59.83 203.00 75.00 Z"/>
</g>
<g fill="None" fill-opacity="0.0" stroke="#7FA4D6" stroke-opacity="1.00" stroke-width="0.3"><path d="
M 225.00 108.00 
C 221.49 105.52 224.63 95.42 224.00 91.00 C 223.37 86.58 223.65 77.96 224.00 73.00 C 224.35 68.04 222.45 59.80 224.00 55.00
C 220.90 60.41 222.84 75.58 223.00 82.00 C 223.16 88.42 219.99 104.39 225.00 108.00 Z"/>
</g>
<g fill="None" fill-opacity="0.0" stroke="#7AA1D4" stroke-opacity="1.00" stroke-width="0.3"><path d="
M 226.00 56.00 
C 226.00 55.96 227.00 56.00 227.00 56.00
C 234.99 56.00 243.01 55.84 251.00 56.00
C 246.50 55.46 229.77 52.08 226.00 56.00 Z"/>
</g>
<g fill="None" fill-opacity="0.0" stroke="#F7FAFC" stroke-opacity="1.00" stroke-width="0.3"><path d="
M 319.00 94.00 
C 319.27 91.88 319.24 89.12 319.00 87.00
C 316.06 73.93 305.70 77.81 295.08 72.92 C 284.45 68.04 303.69 56.00 309.00 68.00
C 321.18 64.32 314.37 57.06 305.22 55.78 C 296.07 54.50 287.58 54.87 280.77 61.77 C 273.96 68.67 280.10 79.05 285.93 83.07 C 291.75 87.10 308.35 85.07 306.92 93.92 C 305.49 102.77 287.01 97.44 285.00 92.00
C 281.56 92.61 279.33 95.88 276.00 97.00
C 285.16 109.42 314.53 111.26 319.00 94.00 Z"/>
</g>
<g fill="None" fill-opacity="0.0" stroke="#7CA2D5" stroke-opacity="1.00" stroke-width="0.3"><path d="
M 328.00 56.00 
C 332.33 56.00 336.67 56.00 341.00 56.00
C 341.00 72.33 341.00 88.67 341.00 105.00
C 345.59 100.41 339.75 90.39 342.00 84.00 C 344.25 77.61 339.16 68.88 342.00 62.00 C 344.84 55.12 331.28 51.31 328.00 56.00 Z"/>
</g>
<g fill="None" fill-opacity="0.0" stroke="#BCCFE9" stroke-opacity="1.00" stroke-width="0.3"><path d="
M 344.00 105.00 
C 346.40 98.67 345.39 87.25 345.00 80.00 C 344.61 72.75 347.43 60.97 344.00 55.00
C 346.26 61.98 343.74 72.57 344.00 80.00 C 344.26 87.43 345.58 97.73 344.00 105.00 Z"/>
</g>
<g fill="None" fill-opacity="0.0" stroke="#F9FAFD" stroke-opacity="1.00" stroke-width="0.3"><path d="
M 352.00 67.00 
C 351.68 68.95 351.68 72.05 352.00 74.00
C 353.67 79.43 360.48 86.50 366.99 86.01 C 373.50 85.52 384.93 91.63 377.02 97.02 C 369.12 102.41 362.83 96.09 358.00 92.00
C 344.77 95.62 353.94 104.52 363.33 105.67 C 372.72 106.82 383.47 106.35 390.23 99.23 C 396.99 92.11 390.77 79.43 384.07 76.93 C 377.38 74.42 359.66 73.71 365.78 64.78 C 371.90 55.84 384.66 73.60 390.00 63.00
C 382.43 50.71 356.80 51.83 352.00 67.00 Z"/>
</g>
<g fill="None" fill-opacity="0.0" stroke="#3E76C1" stroke-opacity="1.00" stroke-width="0.3"><path d="
M 132.00 65.00 
C 128.73 62.59 123.06 64.73 119.00 64.00
C 119.00 61.33 119.00 58.67 119.00 56.00
C 109.71 65.29 128.29 64.47 132.00 65.00 Z"/>
</g>
<g fill="None" fill-opacity="0.0" stroke="#FEFEFE" stroke-opacity="1.00" stroke-width="0.3"><path d="
M 132.00 65.00 
C 132.30 65.22 132.78 65.70 133.00 66.00
C 136.28 70.45 133.32 79.17 134.00 85.00 C 134.68 90.83 134.00 98.96 134.00 105.00
C 138.10 104.63 142.90 104.63 147.00 105.00
C 147.00 98.95 146.33 90.84 147.00 85.00 C 147.67 79.16 144.75 70.42 148.00 66.00
C 148.22 65.70 148.70 65.22 149.00 65.00
C 152.27 62.59 157.94 64.73 162.00 64.00
C 162.00 61.33 162.00 58.67 162.00 56.00
C 147.67 56.00 133.33 56.00 119.00 56.00
C 119.00 58.67 119.00 61.33 119.00 64.00
C 123.06 64.73 128.73 62.59 132.00 65.00 Z"/>
</g>
<g fill="None" fill-opacity="0.0" stroke="#3D75C1" stroke-opacity="1.00" stroke-width="0.3"><path d="
M 149.00 65.00 
C 152.67 64.47 171.30 65.30 162.00 56.00
C 162.00 58.67 162.00 61.33 162.00 64.00
C 157.94 64.73 152.27 62.59 149.00 65.00 Z"/>
</g>
<g fill="None" fill-opacity="0.0" stroke="#BACEE8" stroke-opacity="1.00" stroke-width="0.3"><path d="
M 240.00 88.00 
C 236.94 92.16 240.22 99.94 239.00 105.00
C 235.00 105.00 231.00 105.00 227.00 105.00
C 227.00 88.67 227.00 72.33 227.00 56.00
C 227.00 56.00 226.00 55.96 226.00 56.00
C 226.00 72.67 226.00 89.33 226.00 106.00
C 230.67 106.00 235.33 106.00 240.00 106.00
C 240.64 100.09 239.15 93.88 240.00 88.00 Z"/>
</g>
<g fill="None" fill-opacity="0.0" stroke="#FCFDFE" stroke-opacity="1.00" stroke-width="0.3"><path d="
M 240.00 88.00 
C 240.22 87.70 240.70 87.22 241.00 87.00
C 243.76 84.97 249.40 86.07 253.00 86.00
C 262.41 85.81 271.03 80.29 269.99 70.01 C 268.95 59.73 259.84 56.18 251.00 56.00
C 243.01 55.84 234.99 56.00 227.00 56.00
C 227.00 72.33 227.00 88.67 227.00 105.00
C 231.00 105.00 235.00 105.00 239.00 105.00
C 240.22 99.94 236.94 92.16 240.00 88.00
M 251.00 65.00 
C 265.14 70.22 246.71 85.29 240.00 76.00
C 238.37 73.73 238.37 68.21 240.00 66.00
C 240.22 65.70 240.70 65.22 241.00 65.00
C 243.69 63.02 248.33 64.02 251.00 65.00 Z"/>
</g>
<g fill="None" fill-opacity="0.0" stroke="#FFFFFF" stroke-opacity="1.00" stroke-width="0.3"><path d="
M 328.00 105.00 
C 332.33 105.00 336.67 105.00 341.00 105.00
C 341.00 88.67 341.00 72.33 341.00 56.00
C 336.67 56.00 332.33 56.00 328.00 56.00
C 325.71 59.28 328.75 68.90 328.00 73.00 C 327.25 77.10 327.46 84.96 328.00 89.00 C 328.54 93.04 325.82 101.88 328.00 105.00 Z"/>
</g>
<g fill="None" fill-opacity="0.0" stroke="#A2A0AC" stroke-opacity="1.00" stroke-width="0.3"><path d="
M 69.00 94.00 
C 71.68 85.53 70.40 71.64 69.00 63.00
C 69.51 72.48 70.67 84.67 69.00 94.00 Z"/>
</g>
<g fill="None" fill-opacity="0.0" stroke="#1656B2" stroke-opacity="1.00" stroke-width="0.3"><path d="
M 184.00 75.00 
C 183.74 78.81 183.61 83.20 184.00 87.00
C 187.11 101.05 199.90 101.01 203.00 87.00
C 203.39 83.20 203.26 78.81 203.00 75.00
C 201.97 59.83 185.01 60.10 184.00 75.00
M 200.00 74.00 
C 200.90 78.33 200.88 82.73 200.00 87.00
C 197.86 97.36 189.15 97.39 187.00 87.00
C 186.10 82.67 186.12 78.27 187.00 74.00
C 189.14 63.64 197.85 63.61 200.00 74.00 Z"/>
</g>
<g fill="None" fill-opacity="0.0" stroke="#4F82C6" stroke-opacity="1.00" stroke-width="0.3"><path d="
M 241.00 65.00 
C 243.72 64.61 248.32 64.41 251.00 65.00
C 248.33 64.02 243.69 63.02 241.00 65.00 Z"/>
</g>
<g fill="None" fill-opacity="0.0" stroke="#1556B2" stroke-opacity="1.00" stroke-width="0.3"><path d="
M 240.00 66.00 
C 239.70 68.06 239.10 74.18 240.00 76.00
C 246.71 85.29 265.14 70.22 251.00 65.00
C 248.32 64.41 243.72 64.61 241.00 65.00
C 240.70 65.22 240.22 65.70 240.00 66.00
M 243.00 75.00 
C 241.33 73.83 241.36 68.15 243.00 67.00
C 254.64 58.85 255.40 83.68 243.00 75.00 Z"/>
</g>
<g fill="None" fill-opacity="0.0" stroke="#3D75C0" stroke-opacity="1.00" stroke-width="0.3"><path d="
M 134.00 106.00 
C 133.96 106.00 134.00 105.00 134.00 105.00
C 134.00 98.96 134.68 90.83 134.00 85.00 C 133.32 79.17 136.28 70.45 133.00 66.00
C 133.86 71.99 131.80 81.36 133.00 87.00 C 134.20 92.64 130.09 102.24 134.00 106.00 Z"/>
</g>
<g fill="None" fill-opacity="0.0" stroke="#3C74C0" stroke-opacity="1.00" stroke-width="0.3"><path d="
M 147.00 105.00 
C 147.00 105.50 147.00 106.00 147.00 106.00
C 150.92 102.23 146.72 91.52 148.00 86.00 C 149.28 80.48 147.16 71.83 148.00 66.00
C 144.75 70.42 147.67 79.16 147.00 85.00 C 146.33 90.84 147.00 98.95 147.00 105.00 Z"/>
</g>
<g fill="None" fill-opacity="0.0" stroke="#FAFCFD" stroke-opacity="1.00" stroke-width="0.3"><path d="
M 187.00 74.00 
C 186.63 78.10 186.63 82.90 187.00 87.00
C 189.15 97.39 197.86 97.36 200.00 87.00
C 200.37 82.90 200.37 78.10 200.00 74.00
C 197.85 63.61 189.14 63.64 187.00 74.00 Z"/>
</g>
<g fill="None" fill-opacity="0.0" stroke="#BFD1EA" stroke-opacity="1.00" stroke-width="0.3"><path d="
M 240.00 76.00 
C 239.10 74.18 239.70 68.06 240.00 66.00
C 238.37 68.21 238.37 73.73 240.00 76.00 Z"/>
</g>
<g fill="None" fill-opacity="0.0" stroke="#7CA2D5" stroke-opacity="1.00" stroke-width="0.3"><path d="
M 243.00 75.00 
C 243.00 72.33 243.00 69.67 243.00 67.00
C 241.36 68.15 241.33 73.83 243.00 75.00 Z"/>
</g>
<g fill="None" fill-opacity="0.0" stroke="#FCFDFE" stroke-opacity="1.00" stroke-width="0.3"><path d="
M 243.00 75.00 
C 255.40 83.68 254.64 58.85 243.00 67.00
C 243.00 69.67 243.00 72.33 243.00 75.00 Z"/>
</g>
<g fill="None" fill-opacity="0.0" stroke="#97B5DD" stroke-opacity="1.00" stroke-width="0.3"><path d="
M 352.00 74.00 
C 351.68 72.05 351.68 68.95 352.00 67.00
C 351.13 69.74 351.12 71.21 352.00 74.00 Z"/>
</g>
<g fill="None" fill-opacity="0.0" stroke="#90B0DB" stroke-opacity="1.00" stroke-width="0.3"><path d="
M 272.00 75.00 
C 272.71 72.26 272.69 70.78 272.00 68.00
C 272.24 70.12 272.27 72.88 272.00 75.00 Z"/>
</g>
<g fill="None" fill-opacity="0.0" stroke="#A1BCE1" stroke-opacity="1.00" stroke-width="0.3"><path d="
M 187.00 87.00 
C 186.63 82.90 186.63 78.10 187.00 74.00
C 186.12 78.27 186.10 82.67 187.00 87.00 Z"/>
</g>
<g fill="None" fill-opacity="0.0" stroke="#A0BBE0" stroke-opacity="1.00" stroke-width="0.3"><path d="
M 200.00 87.00 
C 200.88 82.73 200.90 78.33 200.00 74.00
C 200.37 78.10 200.37 82.90 200.00 87.00 Z"/>
</g>
<g fill="None" fill-opacity="0.0" stroke="#A6BFE2" stroke-opacity="1.00" stroke-width="0.3"><path d="
M 184.00 87.00 
C 183.61 83.20 183.74 78.81 184.00 75.00
C 183.29 78.98 183.10 82.93 184.00 87.00 Z"/>
</g>
<g fill="None" fill-opacity="0.0" stroke="#AAC2E3" stroke-opacity="1.00" stroke-width="0.3"><path d="
M 203.00 87.00 
C 203.89 82.98 203.73 79.05 203.00 75.00
C 203.26 78.81 203.39 83.20 203.00 87.00 Z"/>
</g>
<g fill="None" fill-opacity="0.0" stroke="#BACDE8" stroke-opacity="1.00" stroke-width="0.3"><path d="
M 167.00 85.00 
C 166.77 82.13 166.77 78.87 167.00 76.00
C 166.39 79.18 166.38 81.76 167.00 85.00 Z"/>
</g>
<g fill="None" fill-opacity="0.0" stroke="#92B1DC" stroke-opacity="1.00" stroke-width="0.3"><path d="
M 170.00 86.00 
C 169.74 82.77 169.82 79.23 170.00 76.00
C 169.45 79.41 169.33 82.50 170.00 86.00 Z"/>
</g>
<g fill="None" fill-opacity="0.0" stroke="#8FAFDB" stroke-opacity="1.00" stroke-width="0.3"><path d="
M 217.00 86.00 
C 217.61 82.58 217.56 79.46 217.00 76.00
C 217.18 79.25 217.22 82.75 217.00 86.00 Z"/>
</g>
<g fill="None" fill-opacity="0.0" stroke="#BFD1EA" stroke-opacity="1.00" stroke-width="0.3"><path d="
M 220.00 85.00 
C 220.57 81.84 220.62 79.23 220.00 76.00
C 220.23 78.89 220.20 82.11 220.00 85.00 Z"/>
</g>
<g fill="None" fill-opacity="0.0" stroke="#BFD1EA" stroke-opacity="1.00" stroke-width="0.3"><path d="
M 241.00 87.00 
C 244.78 86.46 249.74 86.39 253.00 86.00
C 249.40 86.07 243.76 84.97 241.00 87.00 Z"/>
</g>
<g fill="None" fill-opacity="0.0" stroke="#94B3DD" stroke-opacity="1.00" stroke-width="0.3"><path d="
M 319.00 94.00 
C 319.71 91.26 319.69 89.78 319.00 87.00
C 319.24 89.12 319.27 91.88 319.00 94.00 Z"/>
</g>
<g fill="None" fill-opacity="0.0" stroke="#7DA3D5" stroke-opacity="1.00" stroke-width="0.3"><path d="
M 242.00 106.00 
C 244.31 101.66 242.35 95.16 243.00 90.00
C 246.02 90.86 249.68 89.28 252.00 89.00
C 247.56 89.09 242.37 87.86 242.00 93.00 C 241.63 98.14 243.47 101.45 242.00 106.00 Z"/>
</g>
<g fill="None" fill-opacity="0.0" stroke="#BDD0EA" stroke-opacity="1.00" stroke-width="0.3"><path d="
M 134.00 106.00 
C 138.10 106.37 142.90 106.37 147.00 106.00
C 147.00 106.00 147.00 105.50 147.00 105.00
C 142.90 104.63 138.10 104.63 134.00 105.00
C 134.00 105.00 133.96 106.00 134.00 106.00 Z"/>
</g>
<g fill="None" fill-opacity="0.0" stroke="#BBCFE9" stroke-opacity="1.00" stroke-width="0.3"><path d="
M 341.00 105.00 
C 336.67 105.00 332.33 105.00 328.00 105.00
C 329.43 107.05 339.35 106.65 341.00 105.00 Z"/>
</g>
<g fill="None" fill-opacity="0.0" stroke="#BED1EA" stroke-opacity="1.00" stroke-width="0.3"><path d="
M 148.00 108.00 
C 145.96 109.01 132.33 108.88 131.00 107.00
C 132.73 110.50 145.36 109.90 148.00 108.00 Z"/>
</g>
<g fill="None" fill-opacity="0.0" stroke="#BED0E9" stroke-opacity="1.00" stroke-width="0.3"><path d="
M 240.00 108.00 
C 238.04 108.64 226.59 109.12 225.00 108.00
C 227.84 110.05 237.03 109.70 240.00 108.00 Z"/>
</g>
<g fill="None" fill-opacity="0.0" stroke="#BDCFE9" stroke-opacity="1.00" stroke-width="0.3"><path d="
M 342.00 108.00 
C 340.12 108.77 328.69 109.02 327.00 108.00
C 329.27 110.25 339.49 109.58 342.00 108.00 Z"/>
</g>
<g fill="#FDFDFD" fill-opacity="1.00" stroke="None">
<path d="
M 0.00 125.00 
L 406.00 125.00
L 406.00 0.00
L 0.00 0.00
L 0.00 125.00
M 89.00 36.00 
C 92.11 36.12 95.94 36.52 99.00 36.00
C 106.43 33.75 110.94 20.33 98.97 19.03 C 87.01 17.72 81.57 20.02 68.00 19.00 C 54.43 17.98 63.10 9.57 74.00 12.00 C 84.90 14.43 94.88 9.55 104.07 12.93 C 113.26 16.30 115.39 27.29 112.07 35.07 C 108.75 42.85 97.66 44.82 90.00 44.00 C 82.34 43.18 74.00 40.02 67.25 35.75 C 60.50 31.47 56.38 26.83 48.92 23.08 C 41.46 19.34 31.35 17.58 22.00 19.00 C 12.65 20.42 11.50 33.00 21.00 36.00
C 27.22 37.11 35.30 36.31 41.00 37.00
C 48.14 37.14 55.41 38.20 61.69 41.31 C 67.98 44.41 71.40 48.22 74.31 54.69 C 77.21 61.17 77.24 70.53 77.00 78.00 C 76.76 85.47 78.10 94.91 74.08 101.08 C 70.05 107.24 61.97 109.48 55.33 107.67 C 48.69 105.86 44.52 99.43 44.00 93.00 C 43.49 86.56 44.87 72.92 44.00 67.00 C 43.13 61.08 43.55 43.98 49.74 49.26 C 55.94 54.54 48.44 67.06 51.00 74.00 C 53.56 80.94 47.63 91.68 53.25 97.75 C 58.88 103.81 66.75 101.13 69.00 94.00
C 70.67 84.67 69.51 72.48 69.00 63.00
C 68.21 48.46 48.42 39.41 34.00 44.00 C 19.58 48.59 -0.94 32.66 9.77 18.77 C 20.48 4.88 40.30 11.41 52.69 17.31 C 65.09 23.20 73.93 35.42 89.00 36.00
M 162.00 53.00 
C 165.26 54.69 166.83 61.73 164.67 65.67 C 162.51 69.61 153.43 65.47 150.00 67.00
C 148.69 80.35 152.63 96.24 148.00 108.00
C 145.36 109.90 132.73 110.50 131.00 107.00
C 128.35 101.64 132.38 92.98 131.00 87.00 C 129.62 81.02 132.04 73.15 131.00 67.00
C 126.67 67.00 122.33 67.00 118.00 67.00
C 115.04 65.54 114.38 54.08 118.00 53.00
C 118.46 52.86 119.00 53.00 119.00 53.00
C 123.39 49.75 134.15 52.20 140.00 52.00 C 145.85 51.80 157.09 50.46 162.00 53.00
M 220.00 76.00 
C 220.62 79.23 220.57 81.84 220.00 85.00
C 217.85 116.53 169.50 116.50 167.00 85.00
C 166.38 81.76 166.39 79.18 167.00 76.00
C 169.46 44.99 217.54 44.94 220.00 76.00
M 250.00 53.00 
C 260.54 53.40 269.35 57.32 272.00 68.00
C 272.69 70.78 272.71 72.26 272.00 75.00
C 269.39 85.07 262.19 88.80 252.00 89.00
C 249.68 89.28 246.02 90.86 243.00 90.00
C 242.35 95.16 244.31 101.66 242.00 106.00
C 241.39 107.07 241.03 107.41 240.00 108.00
C 237.03 109.70 227.84 110.05 225.00 108.00
C 219.99 104.39 223.16 88.42 223.00 82.00 C 222.84 75.58 220.90 60.41 224.00 55.00
C 224.61 53.93 224.97 53.59 226.00 53.00
C 231.62 49.78 244.17 52.17 250.00 53.00
M 293.00 67.00 
C 300.54 75.12 314.80 70.97 320.92 83.08 C 327.04 95.18 314.02 108.29 303.78 108.78 C 293.54 109.27 271.79 108.81 275.26 95.26 C 278.72 81.71 300.80 103.49 304.00 91.00
C 295.80 88.22 287.68 88.20 280.75 82.25 C 273.83 76.29 273.95 66.05 279.75 59.75 C 285.56 53.46 296.00 50.77 303.67 52.33 C 311.34 53.89 324.20 57.75 316.77 65.77 C 309.34 73.79 302.38 62.87 293.00 67.00
M 342.00 53.00 
C 343.07 53.61 343.41 53.97 344.00 55.00
C 347.43 60.97 344.61 72.75 345.00 80.00 C 345.39 87.25 346.40 98.67 344.00 105.00
C 343.37 106.66 343.61 106.98 342.00 108.00
C 339.49 109.58 329.27 110.25 327.00 108.00
C 325.99 107.00 326.13 106.52 326.00 105.00
C 324.88 100.50 324.55 93.05 325.00 88.00 C 325.45 82.95 324.13 74.38 325.00 70.00 C 325.87 65.62 322.32 54.39 327.00 53.00
C 327.46 52.86 328.00 53.00 328.00 53.00
C 330.77 50.95 339.22 51.41 342.00 53.00
M 377.00 53.00 
C 384.44 53.40 397.63 58.48 389.75 66.75 C 381.87 75.02 373.61 59.69 367.00 69.00
C 373.55 72.40 379.93 72.21 386.69 75.31 C 393.46 78.40 395.82 85.36 395.22 92.22 C 394.62 99.08 390.45 104.32 383.92 106.92 C 377.39 109.53 366.62 108.71 360.78 107.22 C 354.94 105.73 344.04 101.96 348.26 95.26 C 352.47 88.56 357.81 88.05 363.25 93.75 C 368.68 99.45 382.73 91.41 372.33 89.67 C 361.92 87.94 360.65 87.26 353.75 82.25 C 346.86 77.23 347.82 68.17 350.92 61.92 C 354.03 55.68 362.61 52.67 369.00 53.00
C 371.81 52.60 374.23 52.55 377.00 53.00 Z"/>
</g>
<g fill="#393458" fill-opacity="1.00" stroke="None">
<path d="
M 69.00 63.00 
C 70.40 71.64 71.68 85.53 69.00 94.00
C 66.75 101.13 58.88 103.81 53.25 97.75 C 47.63 91.68 53.56 80.94 51.00 74.00 C 48.44 67.06 55.94 54.54 49.74 49.26 C 43.55 43.98 43.13 61.08 44.00 67.00 C 44.87 72.92 43.49 86.56 44.00 93.00 C 44.52 99.43 48.69 105.86 55.33 107.67 C 61.97 109.48 70.05 107.24 74.08 101.08 C 78.10 94.91 76.76 85.47 77.00 78.00 C 77.24 70.53 77.21 61.17 74.31 54.69 C 71.40 48.22 67.98 44.41 61.69 41.31 C 55.41 38.20 48.14 37.14 41.00 37.00
C 34.44 36.87 26.76 37.82 21.00 36.00
C 11.50 33.00 12.65 20.42 22.00 19.00 C 31.35 17.58 41.46 19.34 48.92 23.08 C 56.38 26.83 60.50 31.47 67.25 35.75 C 74.00 40.02 82.34 43.18 90.00 44.00 C 97.66 44.82 108.75 42.85 112.07 35.07 C 115.39 27.29 113.26 16.30 104.07 12.93 C 94.88 9.55 84.90 14.43 74.00 12.00 C 63.10 9.57 54.43 17.98 68.00 19.00 C 81.57 20.02 87.01 17.72 98.97 19.03 C 110.94 20.33 106.43 33.75 99.00 36.00
C 95.43 37.08 92.39 36.48 89.00 36.00
C 73.93 35.42 65.09 23.20 52.69 17.31 C 40.30 11.41 20.48 4.88 9.77 18.77 C -0.94 32.66 19.58 48.59 34.00 44.00 C 48.42 39.41 68.21 48.46 69.00 63.00 Z"/>
</g>
<g fill="#A4A2AC" fill-opacity="1.00" stroke="None">
<path d="
M 41.00 37.00 
C 35.30 36.31 27.22 37.11 21.00 36.00
C 26.76 37.82 34.44 36.87 41.00 37.00 Z"/>
</g>
<g fill="#9997A4" fill-opacity="1.00" stroke="None">
<path d="
M 99.00 36.00 
C 95.94 36.52 92.11 36.12 89.00 36.00
C 92.39 36.48 95.43 37.08 99.00 36.00 Z"/>
</g>
<g fill="#BDD0EA" fill-opacity="1.00" stroke="None">
<path d="
M 119.00 53.00 
C 125.78 53.00 133.29 52.14 140.00 53.00 C 146.71 53.86 155.64 50.85 162.00 53.00
C 157.09 50.46 145.85 51.80 140.00 52.00 C 134.15 52.20 123.39 49.75 119.00 53.00 Z"/>
</g>
<g fill="#1657B3" fill-opacity="1.00" stroke="None">
<path d="
M 167.00 76.00 
C 166.77 78.87 166.77 82.13 167.00 85.00
C 169.50 116.50 217.85 116.53 220.00 85.00
C 220.20 82.11 220.23 78.89 220.00 76.00
C 217.54 44.94 169.46 44.99 167.00 76.00
M 217.00 76.00 
C 217.56 79.46 217.61 82.58 217.00 86.00
C 215.17 112.82 172.12 112.76 170.00 86.00
C 169.33 82.50 169.45 79.41 170.00 76.00
C 171.50 48.31 215.50 48.28 217.00 76.00 Z"/>
</g>
<g fill="#BDD0EA" fill-opacity="1.00" stroke="None">
<path d="
M 226.00 53.00 
C 232.25 50.98 243.38 52.75 250.00 53.00
C 244.17 52.17 231.62 49.78 226.00 53.00 Z"/>
</g>
<g fill="#1A59B4" fill-opacity="1.00" stroke="None">
<path d="
M 293.00 67.00 
C 302.38 62.87 309.34 73.79 316.77 65.77 C 324.20 57.75 311.34 53.89 303.67 52.33 C 296.00 50.77 285.56 53.46 279.75 59.75 C 273.95 66.05 273.83 76.29 280.75 82.25 C 287.68 88.20 295.80 88.22 304.00 91.00
C 300.80 103.49 278.72 81.71 275.26 95.26 C 271.79 108.81 293.54 109.27 303.78 108.78 C 314.02 108.29 327.04 95.18 320.92 83.08 C 314.80 70.97 300.54 75.12 293.00 67.00
M 319.00 87.00 
C 319.69 89.78 319.71 91.26 319.00 94.00
C 314.53 111.26 285.16 109.42 276.00 97.00
C 279.33 95.88 281.56 92.61 285.00 92.00
C 287.01 97.44 305.49 102.77 306.92 93.92 C 308.35 85.07 291.75 87.10 285.93 83.07 C 280.10 79.05 273.96 68.67 280.77 61.77 C 287.58 54.87 296.07 54.50 305.22 55.78 C 314.37 57.06 321.18 64.32 309.00 68.00
C 303.69 56.00 284.45 68.04 295.08 72.92 C 305.70 77.81 316.06 73.93 319.00 87.00 Z"/>
</g>
<g fill="#BFD1EA" fill-opacity="1.00" stroke="None">
<path d="
M 328.00 53.00 
C 331.99 53.00 338.24 51.78 342.00 53.00
C 339.22 51.41 330.77 50.95 328.00 53.00 Z"/>
</g>
<g fill="#5385C8" fill-opacity="1.00" stroke="None">
<path d="
M 369.00 53.00 
C 371.63 52.90 374.37 52.86 377.00 53.00
C 374.23 52.55 371.81 52.60 369.00 53.00 Z"/>
</g>
<g fill="#497DC5" fill-opacity="1.00" stroke="None">
<path d="
M 118.00 67.00 
C 115.71 65.38 116.46 54.91 118.00 53.00
C 114.38 54.08 115.04 65.54 118.00 67.00 Z"/>
</g>
<g fill="#024BAD" fill-opacity="1.00" stroke="None">
<path d="
M 118.00 67.00 
C 122.33 67.00 126.67 67.00 131.00 67.00
C 132.04 73.15 129.62 81.02 131.00 87.00 C 132.38 92.98 128.35 101.64 131.00 107.00
C 132.33 108.88 145.96 109.01 148.00 108.00
C 152.63 96.24 148.69 80.35 150.00 67.00
C 153.43 65.47 162.51 69.61 164.67 65.67 C 166.83 61.73 165.26 54.69 162.00 53.00
C 155.64 50.85 146.71 53.86 140.00 53.00 C 133.29 52.14 125.78 53.00 119.00 53.00
C 119.00 53.00 118.46 52.86 118.00 53.00
C 116.46 54.91 115.71 65.38 118.00 67.00
M 162.00 56.00 
C 171.30 65.30 152.67 64.47 149.00 65.00
C 148.70 65.22 148.22 65.70 148.00 66.00
C 147.16 71.83 149.28 80.48 148.00 86.00 C 146.72 91.52 150.92 102.23 147.00 106.00
C 142.90 106.37 138.10 106.37 134.00 106.00
C 130.09 102.24 134.20 92.64 133.00 87.00 C 131.80 81.36 133.86 71.99 133.00 66.00
C 132.78 65.70 132.30 65.22 132.00 65.00
C 128.29 64.47 109.71 65.29 119.00 56.00
C 122.12 52.88 135.28 54.88 140.00 55.00 C 144.72 55.12 158.78 52.78 162.00 56.00 Z"/>
</g>
<g fill="#0A4FAF" fill-opacity="1.00" stroke="None">
<path d="
M 224.00 55.00 
C 222.45 59.80 224.35 68.04 224.00 73.00 C 223.65 77.96 223.37 86.58 224.00 91.00 C 224.63 95.42 221.49 105.52 225.00 108.00
C 226.59 109.12 238.04 108.64 240.00 108.00
C 241.03 107.41 241.39 107.07 242.00 106.00
C 243.47 101.45 241.63 98.14 242.00 93.00 C 242.37 87.86 247.56 89.09 252.00 89.00
C 262.19 88.80 269.39 85.07 272.00 75.00
C 272.27 72.88 272.24 70.12 272.00 68.00
C 269.35 57.32 260.54 53.40 250.00 53.00
C 243.38 52.75 232.25 50.98 226.00 53.00
C 224.97 53.59 224.61 53.93 224.00 55.00
M 251.00 56.00 
C 259.84 56.18 268.95 59.73 269.99 70.01 C 271.03 80.29 262.41 85.81 253.00 86.00
C 249.74 86.39 244.78 86.46 241.00 87.00
C 240.70 87.22 240.22 87.70 240.00 88.00
C 239.15 93.88 240.64 100.09 240.00 106.00
C 235.33 106.00 230.67 106.00 226.00 106.00
C 226.00 89.33 226.00 72.67 226.00 56.00
C 229.77 52.08 246.50 55.46 251.00 56.00 Z"/>
</g>
<g fill="#4077C2" fill-opacity="1.00" stroke="None">
<path d="
M 326.00 105.00 
C 325.37 97.59 325.05 86.14 326.00 79.00 C 326.95 71.86 322.55 58.51 327.00 53.00
C 322.32 54.39 325.87 65.62 325.00 70.00 C 324.13 74.38 325.45 82.95 325.00 88.00 C 324.55 93.05 324.88 100.50 326.00 105.00 Z"/>
</g>
<g fill="#014AAD" fill-opacity="1.00" stroke="None">
<path d="
M 326.00 105.00 
C 326.13 106.52 325.99 107.00 327.00 108.00
C 328.69 109.02 340.12 108.77 342.00 108.00
C 343.61 106.98 343.37 106.66 344.00 105.00
C 345.58 97.73 344.26 87.43 344.00 80.00 C 343.74 72.57 346.26 61.98 344.00 55.00
C 343.41 53.97 343.07 53.61 342.00 53.00
C 338.24 51.78 331.99 53.00 328.00 53.00
C 328.00 53.00 327.46 52.86 327.00 53.00
C 322.55 58.51 326.95 71.86 326.00 79.00 C 325.05 86.14 325.37 97.59 326.00 105.00
M 341.00 105.00 
C 339.35 106.65 329.43 107.05 328.00 105.00
C 325.82 101.88 328.54 93.04 328.00 89.00 C 327.46 84.96 327.25 77.10 328.00 73.00 C 328.75 68.90 325.71 59.28 328.00 56.00
C 331.28 51.31 344.84 55.12 342.00 62.00 C 339.16 68.88 344.25 77.61 342.00 84.00 C 339.75 90.39 345.59 100.41 341.00 105.00 Z"/>
</g>
<g fill="#1C5AB4" fill-opacity="1.00" stroke="None">
<path d="
M 377.00 53.00 
C 374.37 52.86 371.63 52.90 369.00 53.00
C 362.61 52.67 354.03 55.68 350.92 61.92 C 347.82 68.17 346.86 77.23 353.75 82.25 C 360.65 87.26 361.92 87.94 372.33 89.67 C 382.73 91.41 368.68 99.45 363.25 93.75 C 357.81 88.05 352.47 88.56 348.26 95.26 C 344.04 101.96 354.94 105.73 360.78 107.22 C 366.62 108.71 377.39 109.53 383.92 106.92 C 390.45 104.32 394.62 99.08 395.22 92.22 C 395.82 85.36 393.46 78.40 386.69 75.31 C 379.93 72.21 373.55 72.40 367.00 69.00
C 373.61 59.69 381.87 75.02 389.75 66.75 C 397.63 58.48 384.44 53.40 377.00 53.00
M 352.00 74.00 
C 351.12 71.21 351.13 69.74 352.00 67.00
C 356.80 51.83 382.43 50.71 390.00 63.00
C 384.66 73.60 371.90 55.84 365.78 64.78 C 359.66 73.71 377.38 74.42 384.07 76.93 C 390.77 79.43 396.99 92.11 390.23 99.23 C 383.47 106.35 372.72 106.82 363.33 105.67 C 353.94 104.52 344.77 95.62 358.00 92.00
C 362.83 96.09 369.12 102.41 377.02 97.02 C 384.93 91.63 373.50 85.52 366.99 86.01 C 360.48 86.50 353.67 79.43 352.00 74.00 Z"/>
</g>
<g fill="#7CA2D5" fill-opacity="1.00" stroke="None">
<path d="
M 119.00 56.00 
C 133.33 56.00 147.67 56.00 162.00 56.00
C 158.78 52.78 144.72 55.12 140.00 55.00 C 135.28 54.88 122.12 52.88 119.00 56.00 Z"/>
</g>
<g fill="#FAFBFD" fill-opacity="1.00" stroke="None">
<path d="
M 170.00 76.00 
C 169.82 79.23 169.74 82.77 170.00 86.00
C 172.12 112.76 215.17 112.82 217.00 86.00
C 217.22 82.75 217.18 79.25 217.00 76.00
C 215.50 48.28 171.50 48.31 170.00 76.00
M 203.00 75.00 
C 203.73 79.05 203.89 82.98 203.00 87.00
C 199.90 101.01 187.11 101.05 184.00 87.00
C 183.10 82.93 183.29 78.98 184.00 75.00
C 185.01 60.10 201.97 59.83 203.00 75.00 Z"/>
</g>
<g fill="#7FA4D6" fill-opacity="1.00" stroke="None">
<path d="
M 225.00 108.00 
C 221.49 105.52 224.63 95.42 224.00 91.00 C 223.37 86.58 223.65 77.96 224.00 73.00 C 224.35 68.04 222.45 59.80 224.00 55.00
C 220.90 60.41 222.84 75.58 223.00 82.00 C 223.16 88.42 219.99 104.39 225.00 108.00 Z"/>
</g>
<g fill="#7AA1D4" fill-opacity="1.00" stroke="None">
<path d="
M 226.00 56.00 
C 226.00 55.96 227.00 56.00 227.00 56.00
C 234.99 56.00 243.01 55.84 251.00 56.00
C 246.50 55.46 229.77 52.08 226.00 56.00 Z"/>
</g>
<g fill="#F7FAFC" fill-opacity="1.00" stroke="None">
<path d="
M 319.00 94.00 
C 319.27 91.88 319.24 89.12 319.00 87.00
C 316.06 73.93 305.70 77.81 295.08 72.92 C 284.45 68.04 303.69 56.00 309.00 68.00
C 321.18 64.32 314.37 57.06 305.22 55.78 C 296.07 54.50 287.58 54.87 280.77 61.77 C 273.96 68.67 280.10 79.05 285.93 83.07 C 291.75 87.10 308.35 85.07 306.92 93.92 C 305.49 102.77 287.01 97.44 285.00 92.00
C 281.56 92.61 279.33 95.88 276.00 97.00
C 285.16 109.42 314.53 111.26 319.00 94.00 Z"/>
</g>
<g fill="#7CA2D5" fill-opacity="1.00" stroke="None">
<path d="
M 328.00 56.00 
C 332.33 56.00 336.67 56.00 341.00 56.00
C 341.00 72.33 341.00 88.67 341.00 105.00
C 345.59 100.41 339.75 90.39 342.00 84.00 C 344.25 77.61 339.16 68.88 342.00 62.00 C 344.84 55.12 331.28 51.31 328.00 56.00 Z"/>
</g>
<g fill="#BCCFE9" fill-opacity="1.00" stroke="None">
<path d="
M 344.00 105.00 
C 346.40 98.67 345.39 87.25 345.00 80.00 C 344.61 72.75 347.43 60.97 344.00 55.00
C 346.26 61.98 343.74 72.57 344.00 80.00 C 344.26 87.43 345.58 97.73 344.00 105.00 Z"/>
</g>
<g fill="#F9FAFD" fill-opacity="1.00" stroke="None">
<path d="
M 352.00 67.00 
C 351.68 68.95 351.68 72.05 352.00 74.00
C 353.67 79.43 360.48 86.50 366.99 86.01 C 373.50 85.52 384.93 91.63 377.02 97.02 C 369.12 102.41 362.83 96.09 358.00 92.00
C 344.77 95.62 353.94 104.52 363.33 105.67 C 372.72 106.82 383.47 106.35 390.23 99.23 C 396.99 92.11 390.77 79.43 384.07 76.93 C 377.38 74.42 359.66 73.71 365.78 64.78 C 371.90 55.84 384.66 73.60 390.00 63.00
C 382.43 50.71 356.80 51.83 352.00 67.00 Z"/>
</g>
<g fill="#3E76C1" fill-opacity="1.00" stroke="None">
<path d="
M 132.00 65.00 
C 128.73 62.59 123.06 64.73 119.00 64.00
C 119.00 61.33 119.00 58.67 119.00 56.00
C 109.71 65.29 128.29 64.47 132.00 65.00 Z"/>
</g>
<g fill="#FEFEFE" fill-opacity="1.00" stroke="None">
<path d="
M 132.00 65.00 
C 132.30 65.22 132.78 65.70 133.00 66.00
C 136.28 70.45 133.32 79.17 134.00 85.00 C 134.68 90.83 134.00 98.96 134.00 105.00
C 138.10 104.63 142.90 104.63 147.00 105.00
C 147.00 98.95 146.33 90.84 147.00 85.00 C 147.67 79.16 144.75 70.42 148.00 66.00
C 148.22 65.70 148.70 65.22 149.00 65.00
C 152.27 62.59 157.94 64.73 162.00 64.00
C 162.00 61.33 162.00 58.67 162.00 56.00
C 147.67 56.00 133.33 56.00 119.00 56.00
C 119.00 58.67 119.00 61.33 119.00 64.00
C 123.06 64.73 128.73 62.59 132.00 65.00 Z"/>
</g>
<g fill="#3D75C1" fill-opacity="1.00" stroke="None">
<path d="
M 149.00 65.00 
C 152.67 64.47 171.30 65.30 162.00 56.00
C 162.00 58.67 162.00 61.33 162.00 64.00
C 157.94 64.73 152.27 62.59 149.00 65.00 Z"/>
</g>
<g fill="#BACEE8" fill-opacity="1.00" stroke="None">
<path d="
M 240.00 88.00 
C 236.94 92.16 240.22 99.94 239.00 105.00
C 235.00 105.00 231.00 105.00 227.00 105.00
C 227.00 88.67 227.00 72.33 227.00 56.00
C 227.00 56.00 226.00 55.96 226.00 56.00
C 226.00 72.67 226.00 89.33 226.00 106.00
C 230.67 106.00 235.33 106.00 240.00 106.00
C 240.64 100.09 239.15 93.88 240.00 88.00 Z"/>
</g>
<g fill="#FCFDFE" fill-opacity="1.00" stroke="None">
<path d="
M 240.00 88.00 
C 240.22 87.70 240.70 87.22 241.00 87.00
C 243.76 84.97 249.40 86.07 253.00 86.00
C 262.41 85.81 271.03 80.29 269.99 70.01 C 268.95 59.73 259.84 56.18 251.00 56.00
C 243.01 55.84 234.99 56.00 227.00 56.00
C 227.00 72.33 227.00 88.67 227.00 105.00
C 231.00 105.00 235.00 105.00 239.00 105.00
C 240.22 99.94 236.94 92.16 240.00 88.00
M 251.00 65.00 
C 265.14 70.22 246.71 85.29 240.00 76.00
C 238.37 73.73 238.37 68.21 240.00 66.00
C 240.22 65.70 240.70 65.22 241.00 65.00
C 243.69 63.02 248.33 64.02 251.00 65.00 Z"/>
</g>
<g fill="#FFFFFF" fill-opacity="1.00" stroke="None">
<path d="
M 328.00 105.00 
C 332.33 105.00 336.67 105.00 341.00 105.00
C 341.00 88.67 341.00 72.33 341.00 56.00
C 336.67 56.00 332.33 56.00 328.00 56.00
C 325.71 59.28 328.75 68.90 328.00 73.00 C 327.25 77.10 327.46 84.96 328.00 89.00 C 328.54 93.04 325.82 101.88 328.00 105.00 Z"/>
</g>
<g fill="#A2A0AC" fill-opacity="1.00" stroke="None">
<path d="
M 69.00 94.00 
C 71.68 85.53 70.40 71.64 69.00 63.00
C 69.51 72.48 70.67 84.67 69.00 94.00 Z"/>
</g>
<g fill="#1656B2" fill-opacity="1.00" stroke="None">
<path d="
M 184.00 75.00 
C 183.74 78.81 183.61 83.20 184.00 87.00
C 187.11 101.05 199.90 101.01 203.00 87.00
C 203.39 83.20 203.26 78.81 203.00 75.00
C 201.97 59.83 185.01 60.10 184.00 75.00
M 200.00 74.00 
C 200.90 78.33 200.88 82.73 200.00 87.00
C 197.86 97.36 189.15 97.39 187.00 87.00
C 186.10 82.67 186.12 78.27 187.00 74.00
C 189.14 63.64 197.85 63.61 200.00 74.00 Z"/>
</g>
<g fill="#4F82C6" fill-opacity="1.00" stroke="None">
<path d="
M 241.00 65.00 
C 243.72 64.61 248.32 64.41 251.00 65.00
C 248.33 64.02 243.69 63.02 241.00 65.00 Z"/>
</g>
<g fill="#1556B2" fill-opacity="1.00" stroke="None">
<path d="
M 240.00 66.00 
C 239.70 68.06 239.10 74.18 240.00 76.00
C 246.71 85.29 265.14 70.22 251.00 65.00
C 248.32 64.41 243.72 64.61 241.00 65.00
C 240.70 65.22 240.22 65.70 240.00 66.00
M 243.00 75.00 
C 241.33 73.83 241.36 68.15 243.00 67.00
C 254.64 58.85 255.40 83.68 243.00 75.00 Z"/>
</g>
<g fill="#3D75C0" fill-opacity="1.00" stroke="None">
<path d="
M 134.00 106.00 
C 133.96 106.00 134.00 105.00 134.00 105.00
C 134.00 98.96 134.68 90.83 134.00 85.00 C 133.32 79.17 136.28 70.45 133.00 66.00
C 133.86 71.99 131.80 81.36 133.00 87.00 C 134.20 92.64 130.09 102.24 134.00 106.00 Z"/>
</g>
<g fill="#3C74C0" fill-opacity="1.00" stroke="None">
<path d="
M 147.00 105.00 
C 147.00 105.50 147.00 106.00 147.00 106.00
C 150.92 102.23 146.72 91.52 148.00 86.00 C 149.28 80.48 147.16 71.83 148.00 66.00
C 144.75 70.42 147.67 79.16 147.00 85.00 C 146.33 90.84 147.00 98.95 147.00 105.00 Z"/>
</g>
<g fill="#FAFCFD" fill-opacity="1.00" stroke="None">
<path d="
M 187.00 74.00 
C 186.63 78.10 186.63 82.90 187.00 87.00
C 189.15 97.39 197.86 97.36 200.00 87.00
C 200.37 82.90 200.37 78.10 200.00 74.00
C 197.85 63.61 189.14 63.64 187.00 74.00 Z"/>
</g>
<g fill="#BFD1EA" fill-opacity="1.00" stroke="None">
<path d="
M 240.00 76.00 
C 239.10 74.18 239.70 68.06 240.00 66.00
C 238.37 68.21 238.37 73.73 240.00 76.00 Z"/>
</g>
<g fill="#7CA2D5" fill-opacity="1.00" stroke="None">
<path d="
M 243.00 75.00 
C 243.00 72.33 243.00 69.67 243.00 67.00
C 241.36 68.15 241.33 73.83 243.00 75.00 Z"/>
</g>
<g fill="#FCFDFE" fill-opacity="1.00" stroke="None">
<path d="
M 243.00 75.00 
C 255.40 83.68 254.64 58.85 243.00 67.00
C 243.00 69.67 243.00 72.33 243.00 75.00 Z"/>
</g>
<g fill="#97B5DD" fill-opacity="1.00" stroke="None">
<path d="
M 352.00 74.00 
C 351.68 72.05 351.68 68.95 352.00 67.00
C 351.13 69.74 351.12 71.21 352.00 74.00 Z"/>
</g>
<g fill="#90B0DB" fill-opacity="1.00" stroke="None">
<path d="
M 272.00 75.00 
C 272.71 72.26 272.69 70.78 272.00 68.00
C 272.24 70.12 272.27 72.88 272.00 75.00 Z"/>
</g>
<g fill="#A1BCE1" fill-opacity="1.00" stroke="None">
<path d="
M 187.00 87.00 
C 186.63 82.90 186.63 78.10 187.00 74.00
C 186.12 78.27 186.10 82.67 187.00 87.00 Z"/>
</g>
<g fill="#A0BBE0" fill-opacity="1.00" stroke="None">
<path d="
M 200.00 87.00 
C 200.88 82.73 200.90 78.33 200.00 74.00
C 200.37 78.10 200.37 82.90 200.00 87.00 Z"/>
</g>
<g fill="#A6BFE2" fill-opacity="1.00" stroke="None">
<path d="
M 184.00 87.00 
C 183.61 83.20 183.74 78.81 184.00 75.00
C 183.29 78.98 183.10 82.93 184.00 87.00 Z"/>
</g>
<g fill="#AAC2E3" fill-opacity="1.00" stroke="None">
<path d="
M 203.00 87.00 
C 203.89 82.98 203.73 79.05 203.00 75.00
C 203.26 78.81 203.39 83.20 203.00 87.00 Z"/>
</g>
<g fill="#BACDE8" fill-opacity="1.00" stroke="None">
<path d="
M 167.00 85.00 
C 166.77 82.13 166.77 78.87 167.00 76.00
C 166.39 79.18 166.38 81.76 167.00 85.00 Z"/>
</g>
<g fill="#92B1DC" fill-opacity="1.00" stroke="None">
<path d="
M 170.00 86.00 
C 169.74 82.77 169.82 79.23 170.00 76.00
C 169.45 79.41 169.33 82.50 170.00 86.00 Z"/>
</g>
<g fill="#8FAFDB" fill-opacity="1.00" stroke="None">
<path d="
M 217.00 86.00 
C 217.61 82.58 217.56 79.46 217.00 76.00
C 217.18 79.25 217.22 82.75 217.00 86.00 Z"/>
</g>
<g fill="#BFD1EA" fill-opacity="1.00" stroke="None">
<path d="
M 220.00 85.00 
C 220.57 81.84 220.62 79.23 220.00 76.00
C 220.23 78.89 220.20 82.11 220.00 85.00 Z"/>
</g>
<g fill="#BFD1EA" fill-opacity="1.00" stroke="None">
<path d="
M 241.00 87.00 
C 244.78 86.46 249.74 86.39 253.00 86.00
C 249.40 86.07 243.76 84.97 241.00 87.00 Z"/>
</g>
<g fill="#94B3DD" fill-opacity="1.00" stroke="None">
<path d="
M 319.00 94.00 
C 319.71 91.26 319.69 89.78 319.00 87.00
C 319.24 89.12 319.27 91.88 319.00 94.00 Z"/>
</g>
<g fill="#7DA3D5" fill-opacity="1.00" stroke="None">
<path d="
M 242.00 106.00 
C 244.31 101.66 242.35 95.16 243.00 90.00
C 246.02 90.86 249.68 89.28 252.00 89.00
C 247.56 89.09 242.37 87.86 242.00 93.00 C 241.63 98.14 243.47 101.45 242.00 106.00 Z"/>
</g>
<g fill="#BDD0EA" fill-opacity="1.00" stroke="None">
<path d="
M 134.00 106.00 
C 138.10 106.37 142.90 106.37 147.00 106.00
C 147.00 106.00 147.00 105.50 147.00 105.00
C 142.90 104.63 138.10 104.63 134.00 105.00
C 134.00 105.00 133.96 106.00 134.00 106.00 Z"/>
</g>
<g fill="#BBCFE9" fill-opacity="1.00" stroke="None">
<path d="
M 341.00 105.00 
C 336.67 105.00 332.33 105.00 328.00 105.00
C 329.43 107.05 339.35 106.65 341.00 105.00 Z"/>
</g>
<g fill="#BED1EA" fill-opacity="1.00" stroke="None">
<path d="
M 148.00 108.00 
C 145.96 109.01 132.33 108.88 131.00 107.00
C 132.73 110.50 145.36 109.90 148.00 108.00 Z"/>
</g>
<g fill="#BED0E9" fill-opacity="1.00" stroke="None">
<path d="
M 240.00 108.00 
C 238.04 108.64 226.59 109.12 225.00 108.00
C 227.84 110.05 237.03 109.70 240.00 108.00 Z"/>
</g>
<g fill="#BDCFE9" fill-opacity="1.00" stroke="None">
<path d="
M 342.00 108.00 
C 340.12 108.77 328.69 109.02 327.00 108.00
C 329.27 110.25 339.49 109.58 342.00 108.00 Z"/>
</g>
</svg>